<svg width="105" height="36" viewBox="0 0 105 36" fill="none" xmlns="http://www.w3.org/2000/svg">
<path d="M13.2371 0H31.2418L18.0047 19.62H0L13.2371 0Z" fill="#147AFF"/>
<path d="M14.0333 21.4406L8.90625 29.0399H27.765L41.0021 9.41992H27.0832L18.9731 21.4406H14.0333Z" fill="#5044E5"/>
<path d="M47.4 29.2C46.6667 29.2 45.96 29.1333 45.28 29C44.6133 28.88 43.9933 28.7 43.42 28.46C42.86 28.22 42.36 27.9333 41.92 27.6L42.7 25.58C43.14 25.8867 43.6 26.1533 44.08 26.38C44.5733 26.5933 45.0933 26.76 45.64 26.88C46.2 26.9867 46.7867 27.04 47.4 27.04C48.4533 27.04 49.22 26.8667 49.7 26.52C50.18 26.16 50.42 25.7 50.42 25.14C50.42 24.8333 50.3467 24.5733 50.2 24.36C50.0533 24.1333 49.8133 23.94 49.48 23.78C49.1467 23.62 48.7067 23.4867 48.16 23.38L45.96 22.92C44.6933 22.6533 43.7467 22.2067 43.12 21.58C42.5067 20.94 42.2 20.1 42.2 19.06C42.2 18.18 42.4333 17.4133 42.9 16.76C43.3667 16.1067 44.0133 15.6 44.84 15.24C45.6667 14.88 46.62 14.7 47.7 14.7C48.34 14.7 48.9533 14.7667 49.54 14.9C50.14 15.02 50.6867 15.2067 51.18 15.46C51.6867 15.7 52.1267 15.9933 52.5 16.34L51.72 18.26C51.16 17.7933 50.5467 17.4467 49.88 17.22C49.2133 16.98 48.48 16.86 47.68 16.86C47.0667 16.86 46.54 16.9467 46.1 17.12C45.66 17.2933 45.32 17.54 45.08 17.86C44.8533 18.1667 44.74 18.5333 44.74 18.96C44.74 19.44 44.9 19.8267 45.22 20.12C45.54 20.4 46.0867 20.62 46.86 20.78L49.04 21.24C50.36 21.52 51.34 21.96 51.98 22.56C52.6333 23.16 52.96 23.96 52.96 24.96C52.96 25.8 52.7333 26.54 52.28 27.18C51.8267 27.82 51.18 28.32 50.34 28.68C49.5133 29.0267 48.5333 29.2 47.4 29.2ZM55.1572 29V14.9H61.2772C62.3172 14.9 63.1972 15.0733 63.9172 15.42C64.6372 15.7667 65.1839 16.2667 65.5572 16.92C65.9305 17.5733 66.1172 18.3667 66.1172 19.3C66.1172 20.22 65.9305 21.0133 65.5572 21.68C65.1839 22.3333 64.6372 22.84 63.9172 23.2C63.1972 23.5467 62.3172 23.72 61.2772 23.72H57.7172V29H55.1572ZM57.7172 21.7H60.8772C61.7839 21.7 62.4705 21.5 62.9372 21.1C63.4039 20.6867 63.6372 20.0867 63.6372 19.3C63.6372 18.5133 63.4039 17.92 62.9372 17.52C62.4705 17.12 61.7839 16.92 60.8772 16.92H57.7172V21.7ZM68.2041 29V14.9H74.3241C75.8707 14.9 77.0641 15.2733 77.9041 16.02C78.7441 16.7533 79.1641 17.7867 79.1641 19.12C79.1641 19.9867 78.9707 20.7333 78.5841 21.36C78.2107 21.9867 77.6641 22.4667 76.9441 22.8C76.2241 23.1333 75.3507 23.3 74.3241 23.3L74.5041 23H75.1641C75.7107 23 76.1841 23.1333 76.5841 23.4C76.9974 23.6667 77.3574 24.0867 77.6641 24.66L80.0241 29H77.2041L74.7641 24.5C74.6041 24.2067 74.4241 23.98 74.2241 23.82C74.0241 23.6467 73.7974 23.5267 73.5441 23.46C73.2907 23.3933 72.9974 23.36 72.6641 23.36H70.7641V29H68.2041ZM70.7641 21.46H73.8841C74.8041 21.46 75.4974 21.2733 75.9641 20.9C76.4441 20.5133 76.6841 19.94 76.6841 19.18C76.6841 18.4333 76.4441 17.8733 75.9641 17.5C75.4974 17.1133 74.8041 16.92 73.8841 16.92H70.7641V21.46ZM81.915 29V14.9H91.295V16.94H84.375V20.82H90.855V22.86H84.375V26.96H91.295V29H81.915ZM93.8486 29V14.9H103.229V16.94H96.3086V20.82H102.789V22.86H96.3086V26.96H103.229V29H93.8486Z" fill="white"/>
</svg>
