<svg width="106" height="30" viewBox="0 0 106 30" fill="none" xmlns="http://www.w3.org/2000/svg">
<path d="M13.2371 0H31.2418L18.0047 19.62H0L13.2371 0Z" fill="#147AFF"/>
<path d="M14.0333 21.4406L8.90625 29.0399H27.765L41.0021 9.41992H27.0832L18.9731 21.4406H14.0333Z" fill="#5044E5"/>
<path d="M48.4 22.2C47.6667 22.2 46.96 22.1333 46.28 22C45.6133 21.88 44.9933 21.7 44.42 21.46C43.86 21.22 43.36 20.9333 42.92 20.6L43.7 18.58C44.14 18.8867 44.6 19.1533 45.08 19.38C45.5733 19.5933 46.0933 19.76 46.64 19.88C47.2 19.9867 47.7867 20.04 48.4 20.04C49.4533 20.04 50.22 19.8667 50.7 19.52C51.18 19.16 51.42 18.7 51.42 18.14C51.42 17.8333 51.3467 17.5733 51.2 17.36C51.0533 17.1333 50.8133 16.94 50.48 16.78C50.1467 16.62 49.7067 16.4867 49.16 16.38L46.96 15.92C45.6933 15.6533 44.7467 15.2067 44.12 14.58C43.5067 13.94 43.2 13.1 43.2 12.06C43.2 11.18 43.4333 10.4133 43.9 9.76C44.3667 9.10667 45.0133 8.6 45.84 8.24C46.6667 7.88 47.62 7.7 48.7 7.7C49.34 7.7 49.9533 7.76667 50.54 7.9C51.14 8.02 51.6867 8.20667 52.18 8.46C52.6867 8.7 53.1267 8.99333 53.5 9.34L52.72 11.26C52.16 10.7933 51.5467 10.4467 50.88 10.22C50.2133 9.98 49.48 9.86 48.68 9.86C48.0667 9.86 47.54 9.94667 47.1 10.12C46.66 10.2933 46.32 10.54 46.08 10.86C45.8533 11.1667 45.74 11.5333 45.74 11.96C45.74 12.44 45.9 12.8267 46.22 13.12C46.54 13.4 47.0867 13.62 47.86 13.78L50.04 14.24C51.36 14.52 52.34 14.96 52.98 15.56C53.6333 16.16 53.96 16.96 53.96 17.96C53.96 18.8 53.7333 19.54 53.28 20.18C52.8267 20.82 52.18 21.32 51.34 21.68C50.5133 22.0267 49.5333 22.2 48.4 22.2ZM56.1572 22V7.9H62.2772C63.3172 7.9 64.1972 8.07333 64.9172 8.42C65.6372 8.76667 66.1839 9.26667 66.5572 9.92C66.9305 10.5733 67.1172 11.3667 67.1172 12.3C67.1172 13.22 66.9305 14.0133 66.5572 14.68C66.1839 15.3333 65.6372 15.84 64.9172 16.2C64.1972 16.5467 63.3172 16.72 62.2772 16.72H58.7172V22H56.1572ZM58.7172 14.7H61.8772C62.7839 14.7 63.4705 14.5 63.9372 14.1C64.4039 13.6867 64.6372 13.0867 64.6372 12.3C64.6372 11.5133 64.4039 10.92 63.9372 10.52C63.4705 10.12 62.7839 9.92 61.8772 9.92H58.7172V14.7ZM69.2041 22V7.9H75.3241C76.8707 7.9 78.0641 8.27333 78.9041 9.02C79.7441 9.75333 80.1641 10.7867 80.1641 12.12C80.1641 12.9867 79.9707 13.7333 79.5841 14.36C79.2107 14.9867 78.6641 15.4667 77.9441 15.8C77.2241 16.1333 76.3507 16.3 75.3241 16.3L75.5041 16H76.1641C76.7107 16 77.1841 16.1333 77.5841 16.4C77.9974 16.6667 78.3574 17.0867 78.6641 17.66L81.0241 22H78.2041L75.7641 17.5C75.6041 17.2067 75.4241 16.98 75.2241 16.82C75.0241 16.6467 74.7974 16.5267 74.5441 16.46C74.2907 16.3933 73.9974 16.36 73.6641 16.36H71.7641V22H69.2041ZM71.7641 14.46H74.8841C75.8041 14.46 76.4974 14.2733 76.9641 13.9C77.4441 13.5133 77.6841 12.94 77.6841 12.18C77.6841 11.4333 77.4441 10.8733 76.9641 10.5C76.4974 10.1133 75.8041 9.92 74.8841 9.92H71.7641V14.46ZM82.915 22V7.9H92.295V9.94H85.375V13.82H91.855V15.86H85.375V19.96H92.295V22H82.915ZM94.8486 22V7.9H104.229V9.94H97.3086V13.82H103.789V15.86H97.3086V19.96H104.229V22H94.8486Z" fill="black"/>
</svg>
